<svg width="89" height="89" viewBox="0 0 89 89" fill="none" xmlns="http://www.w3.org/2000/svg">
<path d="M57.5243 17.5058C57.8138 17.2162 58.0109 16.8474 58.0908 16.4458C58.1707 16.0443 58.1297 15.6281 57.9731 15.2498C57.8165 14.8715 57.5513 14.5482 57.2109 14.3206C56.8706 14.093 56.4704 13.9714 56.061 13.9712H50.8319C50.427 13.971 50.031 13.8521 49.6929 13.6291C49.3548 13.4061 49.0896 13.0889 48.93 12.7167L46.4034 6.81739C46.244 6.44498 45.9787 6.12755 45.6406 5.90448C45.3024 5.68141 44.9062 5.5625 44.5011 5.5625C44.096 5.5625 43.6998 5.68141 43.3617 5.90448C43.0235 6.12755 42.7583 6.44498 42.5989 6.81739L40.0716 12.7167C39.9121 13.089 39.6469 13.4063 39.3088 13.6293C38.9708 13.8523 38.5746 13.9712 38.1696 13.9712H32.9412C32.5318 13.9713 32.1315 14.0928 31.7911 14.3203C31.4507 14.5479 31.1854 14.8712 31.0287 15.2495C30.872 15.6278 30.831 16.0441 30.9108 16.4457C30.9907 16.8473 31.1878 17.2162 31.4773 17.5058L35.3938 21.4237C35.6467 21.6765 35.8298 21.9905 35.9253 22.3351C36.0207 22.6797 36.0252 23.0432 35.9384 23.39L34.0874 30.7961C33.989 31.1896 34.0084 31.6035 34.1431 31.9861C34.2779 32.3687 34.5221 32.7034 34.8455 32.9484C35.1688 33.1934 35.557 33.338 35.9619 33.3642C36.3667 33.3904 36.7703 33.2971 37.1226 33.0959L43.4741 29.4649C43.7868 29.2862 44.1407 29.1922 44.5008 29.1922C44.8609 29.1922 45.2148 29.2862 45.5275 29.4649L51.8797 33.0959C52.2319 33.2971 52.6355 33.3904 53.0403 33.3642C53.4451 33.3379 53.8333 33.1933 54.1566 32.9483C54.4798 32.7033 54.724 32.3686 54.8587 31.986C54.9934 31.6034 55.0127 31.1896 54.9142 30.7961L53.0632 23.39C52.9765 23.0432 52.9811 22.6797 53.0765 22.3352C53.172 21.9906 53.355 21.6766 53.6077 21.4237L57.5243 17.5058Z" fill="#161616"/>
<path d="M11.2287 33.7308L9.74843 39.6558C9.66959 39.9706 9.68501 40.3017 9.79276 40.6078C9.90051 40.9139 10.0959 41.1815 10.3545 41.3775C10.6131 41.5735 10.9237 41.6892 11.2475 41.7101C11.5714 41.7311 11.8942 41.6564 12.1759 41.4953L17.257 38.5905C17.5073 38.4476 17.7905 38.3725 18.0786 38.3725C18.3668 38.3725 18.6499 38.4476 18.9002 38.5905L23.982 41.4953C24.2637 41.6564 24.5865 41.7311 24.9103 41.7101C25.2341 41.6892 25.5446 41.5735 25.8032 41.3775C26.0618 41.1815 26.2571 40.9138 26.3647 40.6077C26.4724 40.3016 26.4877 39.9706 26.4088 39.6558L24.9285 33.7308C24.8592 33.4533 24.8628 33.1626 24.9391 32.887C25.0153 32.6114 25.1616 32.3602 25.3638 32.1578L28.4974 29.0231C28.729 28.7915 28.8867 28.4965 28.9506 28.1752C29.0145 27.854 28.9817 27.5211 28.8564 27.2185C28.7312 26.9159 28.519 26.6572 28.2467 26.4751C27.9745 26.2931 27.6543 26.1959 27.3268 26.1957H23.1441C22.8199 26.1957 22.5029 26.1005 22.2323 25.922C21.9617 25.7436 21.7494 25.4896 21.6217 25.1917L19.6003 20.4727C19.4728 20.1748 19.2606 19.9208 18.9901 19.7424C18.7196 19.5639 18.4027 19.4688 18.0786 19.4688C17.7545 19.4688 17.4376 19.5639 17.1671 19.7424C16.8966 19.9208 16.6844 20.1748 16.5569 20.4727L14.5355 25.1918C14.4078 25.4897 14.1955 25.7437 13.9249 25.9222C13.6543 26.1006 13.3373 26.1958 13.0131 26.1958H8.8304C8.50288 26.196 8.18277 26.2932 7.91051 26.4753C7.63825 26.6573 7.42606 26.916 7.30078 27.2186C7.1755 27.5212 7.14274 27.8541 7.20664 28.1753C7.27054 28.4966 7.42824 28.7916 7.6598 29.0232L10.7935 32.1579C10.9956 32.3603 11.1419 32.6114 11.2181 32.8871C11.2944 33.1627 11.298 33.4533 11.2287 33.7308Z" fill="#161616"/>
<path d="M80.361 26.1957H76.1782C75.8541 26.1957 75.5372 26.1006 75.2666 25.9221C74.9961 25.7436 74.784 25.4897 74.6565 25.1917L72.6344 20.4727C72.5069 20.1748 72.2948 19.9208 72.0243 19.7424C71.7538 19.5639 71.4368 19.4688 71.1128 19.4688C70.7887 19.4688 70.4717 19.5639 70.2012 19.7424C69.9307 19.9208 69.7186 20.1748 69.5911 20.4727L67.569 25.1919C67.4416 25.4898 67.2296 25.7437 66.9592 25.9222C66.6888 26.1007 66.372 26.1959 66.048 26.1959H61.8652C61.5377 26.196 61.2175 26.2931 60.9451 26.4751C60.6727 26.6571 60.4605 26.9158 60.3351 27.2184C60.2097 27.521 60.1769 27.854 60.2408 28.1753C60.3047 28.4966 60.4624 28.7917 60.6939 29.0234L63.8276 32.158C64.0299 32.3603 64.1763 32.6115 64.2525 32.8871C64.3288 33.1628 64.3324 33.4535 64.2628 33.731L62.7819 39.6561C62.7032 39.9709 62.7187 40.3019 62.8266 40.608C62.9344 40.9141 63.1298 41.1818 63.3885 41.3777C63.6472 41.5737 63.9577 41.6893 64.2816 41.7103C64.6054 41.7312 64.9283 41.6565 65.2101 41.4955L70.2911 38.5907C70.5414 38.4479 70.8246 38.3727 71.1128 38.3727C71.4009 38.3727 71.6841 38.4479 71.9344 38.5907L77.0155 41.4955C77.2972 41.6565 77.6201 41.7312 77.9439 41.7102C78.2677 41.6892 78.5783 41.5736 78.8369 41.3776C79.0956 41.1817 79.291 40.914 79.3988 40.608C79.5066 40.3019 79.5222 39.9709 79.4435 39.6561L77.9626 33.731C77.8932 33.4535 77.8968 33.1628 77.9731 32.8872C78.0494 32.6116 78.1957 32.3604 78.3978 32.158L81.5316 29.0231C81.7632 28.7915 81.9209 28.4964 81.9848 28.1752C82.0487 27.854 82.0159 27.5211 81.8906 27.2184C81.7653 26.9158 81.5531 26.6572 81.2809 26.4751C81.0086 26.2931 80.6885 26.1959 80.361 26.1957Z" fill="#161616"/>
<path d="M20.4249 55.2051H25.0371C25.7734 55.2051 26.4795 55.4976 27.0002 56.0182C27.5208 56.5388 27.8133 57.245 27.8133 57.9812V79.7301C27.8133 80.4665 27.5208 81.1727 27.0001 81.6934C26.4794 82.2141 25.7732 82.5066 25.0368 82.5066H20.4249C19.6886 82.5066 18.9823 82.2141 18.4617 81.6934C17.941 81.1727 17.6484 80.4665 17.6484 79.7301V57.9816C17.6484 57.617 17.7202 57.2559 17.8598 56.9191C17.9993 56.5822 18.2038 56.2761 18.4616 56.0183C18.7195 55.7605 19.0255 55.556 19.3624 55.4164C19.6993 55.2769 20.0603 55.2051 20.4249 55.2051Z" fill="#161616"/>
<path d="M55.3756 58.2401H47.977L52.9277 43.4162C53.0603 43.0028 53.1261 42.5709 53.1226 42.1368C53.1296 41.2939 52.8771 40.4692 52.3993 39.7748C51.9215 39.0804 51.2415 38.5498 50.4518 38.2551C49.662 37.9605 48.8007 37.916 47.9848 38.1278C47.1689 38.3395 46.4379 38.7973 45.8911 39.4388L31.2434 56.5588C30.8102 57.0599 30.5729 57.7007 30.5752 58.363C30.5908 61.9014 30.5936 73.7271 30.5942 78.1709C30.5944 78.6859 30.7384 79.1905 31.01 79.628C31.2816 80.0655 31.6701 80.4184 32.1315 80.6469L32.6523 80.9077C34.7727 81.9683 37.111 82.5204 39.4819 82.5203H52.3438C53.699 82.5121 55.0131 82.0544 56.0801 81.2189C57.1471 80.3833 57.9067 79.2173 58.2397 77.9037L61.2714 65.7774C61.4937 64.8823 61.5092 63.9484 61.3168 63.0464C61.1243 62.1444 60.729 61.2981 60.1608 60.5716C59.5925 59.8452 58.8663 59.2577 58.0372 58.8537C57.2081 58.4497 56.2979 58.2399 55.3756 58.2401Z" fill="#161616"/>
</svg>
