<svg width="89" height="89" viewBox="0 0 89 89" fill="none" xmlns="http://www.w3.org/2000/svg">
<path fill-rule="evenodd" clip-rule="evenodd" d="M71.4187 34.4705V45.6421C71.4187 46.3167 70.8718 46.8637 70.1972 46.8637H55.465V44.4205H68.9756V19.9481C67.6146 19.4494 66.6422 18.1418 66.6422 16.6089C66.6422 14.6469 68.2351 13.054 70.1972 13.054C72.1592 13.054 73.7521 14.6469 73.7521 16.6089C73.7521 18.1418 72.7797 19.4494 71.4187 19.9481V32.0274H80.0015C80.4878 30.8061 81.6813 29.9421 83.0751 29.9421C84.9001 29.9421 86.3819 31.4239 86.3819 33.2489C86.3819 35.0741 84.9001 36.5559 83.0751 36.5559C81.6813 36.5559 80.4878 35.6917 80.0015 34.4705H71.4187ZM65.2936 61.2525V53.7104H55.4645C55.4649 53.687 55.465 53.6638 55.465 53.6404V51.2672H66.5152C67.1898 51.2672 67.7367 51.8142 67.7367 52.4888V60.0309H76.3195C76.8058 58.8097 77.9993 57.9456 79.3931 57.9456C81.2181 57.9456 82.6999 59.4273 82.6999 61.2525C82.6999 63.0775 81.2181 64.5593 79.3931 64.5593C77.9993 64.5593 76.8058 63.6953 76.3195 62.4741H67.7367V69.7943C68.958 70.2806 69.8221 71.4741 69.8221 72.8679C69.8221 74.6929 68.3404 76.1747 66.5152 76.1747C64.6902 76.1747 63.2084 74.6929 63.2084 72.8679C63.2084 71.4741 64.0724 70.2806 65.2936 69.7943V61.2525ZM55.9568 21.3854C55.4582 22.7464 54.1506 23.7188 52.6176 23.7188C50.6556 23.7188 49.0626 22.1259 49.0626 20.1638C49.0626 18.2018 50.6556 16.6089 52.6176 16.6089C54.1506 16.6089 55.4582 17.5813 55.9568 18.9423H61.4457C62.1203 18.9423 62.6672 19.4892 62.6672 20.1638V37.0347C62.6672 37.7094 62.1203 38.2563 61.4457 38.2563H55.465V35.8132H60.2241V21.3854H55.9568ZM43.2017 8.82V24.4252C41.706 24.0779 40.149 23.8942 38.5505 23.8942C27.1981 23.8942 17.9432 33.1493 17.9432 44.5015C17.9432 55.8488 27.1981 65.1088 38.5505 65.1088C40.149 65.1088 41.706 64.9251 43.2017 64.5776V80.1788C42.8827 80.3395 42.522 80.4297 42.1403 80.4297H34.9554C33.6527 80.4297 32.5959 79.3773 32.5959 78.0702C32.5959 70.9872 24.0274 67.4392 19.0197 72.4472C18.0988 73.368 16.605 73.368 15.6841 72.4472L10.6 67.3672C9.67908 66.4463 9.67908 64.9481 10.6 64.0272C15.6035 59.0237 12.0556 50.4511 4.97673 50.4511C3.67384 50.4511 2.61719 49.3944 2.61719 48.0915V40.9066C2.61719 39.6037 3.67384 38.5471 4.97673 38.5471C12.0556 38.5471 15.6035 29.9744 10.6 24.9709C9.67908 24.05 9.67908 22.5562 10.6 21.6351L15.6841 16.551C16.605 15.6301 18.0988 15.6301 19.0197 16.551C24.0233 21.5545 32.5959 18.0067 32.5959 10.9279C32.5959 9.62502 33.6527 8.56836 34.9554 8.56836H42.1403C42.522 8.56836 42.8827 8.65893 43.2017 8.82ZM50.4826 32.8184C51.885 32.8184 53.0219 33.9552 53.0219 35.3577V53.6404C53.0219 55.0429 51.885 56.1797 50.4826 56.1797H32.1997C30.7974 56.1797 29.6604 55.0429 29.6604 53.6404V35.3577C29.6604 33.9552 30.7974 32.8184 32.1997 32.8184H50.4826Z" fill="#F0F0F0"/>
</svg>
