<svg width="89" height="89" viewBox="0 0 89 89" fill="none" xmlns="http://www.w3.org/2000/svg">
<g clip-path="url(#clip0_2824_2166)">
<path d="M71.1898 45.1796C70.6835 44.5045 69.7259 44.3677 69.0507 44.8741C68.7264 45.1174 68.5119 45.4795 68.4548 45.881L67.6068 51.8247C67.5864 51.9011 67.5596 51.9755 67.5273 52.0477C69.0857 49.9785 70.3433 47.699 71.2632 45.2774L71.1898 45.1796Z" fill="#161616"/>
<path d="M66.0928 53.135C66.0208 53.135 65.9488 53.1305 65.8774 53.1213L56.8014 51.8241C55.966 51.7043 55.386 50.9302 55.5057 50.0948V50.0944L56.3537 44.1507C56.472 43.3152 55.8906 42.542 55.055 42.4238C54.6553 42.3673 54.2492 42.4712 53.9259 42.713L49.122 46.3143C48.4469 46.8206 47.4892 46.6839 46.9829 46.0087L41.4823 38.6746C40.976 37.9995 41.1127 37.0418 41.7879 36.5355L46.5902 32.9341C47.2654 32.4278 47.4021 31.4702 46.8958 30.795C46.6525 30.4707 46.2904 30.2562 45.8889 30.1991L39.9452 29.3496C39.1098 29.2308 38.5288 28.4571 38.6478 27.6217C38.6478 27.6211 38.648 27.6205 38.648 27.62L39.9452 18.5455C40.064 17.7101 40.8377 17.1291 41.6731 17.2481C41.6737 17.2481 41.6743 17.2483 41.6748 17.2483L47.6185 18.0978C48.2299 18.1865 48.834 17.8958 49.1465 17.3629C49.471 16.8333 49.4345 16.1583 49.0548 15.6669L45.4565 10.8661C44.9502 10.191 45.0869 9.23331 45.7621 8.72699L46.6284 8.07762C45.225 8.00982 43.8183 8.04744 42.4205 8.19069C27.329 9.91382 16.4921 23.5448 18.2152 38.6362C19.154 46.8575 23.7443 54.2191 30.7134 58.6799C33.2578 60.2575 34.8205 63.025 34.8572 66.0186V72.193C34.8572 74.7246 36.9094 76.7768 39.441 76.7768H51.6645C54.1961 76.7768 56.2483 74.7246 56.2483 72.193V66.1454C56.2871 63.0815 57.8819 60.248 60.4807 58.6249C62.8895 57.0622 65.0407 55.1343 66.8568 52.9104C66.6265 53.0516 66.3629 53.1291 66.0928 53.135ZM47.0807 72.193H44.0248V67.6092H47.0807V72.193ZM44.0248 64.5533C44.0239 60.5135 41.5327 56.8922 37.7603 55.4468C26.7574 51.1445 21.3255 38.7374 25.6278 27.7346C27.2937 23.4741 30.2816 19.8599 34.1528 17.4225L35.7739 20.0078C27.2031 25.4008 24.6272 36.7206 30.0203 45.2914C32.1097 48.6119 35.2094 51.1749 38.8634 52.6033C43.8155 54.4974 47.0845 59.2514 47.0807 64.5533H44.0248Z" fill="#161616"/>
<path d="M39.4404 84.416V85.944C39.4404 87.6318 40.8085 88.9998 42.4963 88.9998H48.6081C50.2959 88.9998 51.6639 87.6318 51.6639 85.944V84.416H39.4404Z" fill="#161616"/>
<path d="M29.8875 59.9687C28.9822 59.3817 28.1103 58.7446 27.2762 58.0603C24.9696 62.5505 19.4598 64.3206 14.9696 62.0142C11.9134 60.4442 9.99579 57.2928 10.0059 53.8569C10.013 49.2374 13.4533 45.3434 18.0368 44.7672C17.476 43.0807 17.0709 41.3463 16.8266 39.5859L16.5592 40.8572C16.212 42.5087 14.5914 43.566 12.9399 43.2188C12.5444 43.1357 12.1693 42.9749 11.8364 42.7457L8.65827 40.5638L5.87436 43.3416L8.06237 46.5228C9.02001 47.9124 8.66973 49.8155 7.28006 50.7731C6.94678 51.0027 6.57129 51.1639 6.17536 51.2472L2.36621 52.0493V55.6797L6.17536 56.4819C7.82688 56.8297 8.88383 58.4505 8.53603 60.102C8.45257 60.4985 8.29099 60.8743 8.06084 61.2078L5.87436 64.3722L8.65827 67.15L11.8333 64.962C13.223 64.0043 15.126 64.3546 16.0837 65.7443C16.3132 66.0775 16.4744 66.453 16.5577 66.849L17.3584 70.6642H20.9903L21.7909 66.8551C22.1385 65.2036 23.7591 64.1464 25.4106 64.494C25.8065 64.5773 26.182 64.7385 26.5153 64.9681L29.6888 67.15L32.9663 63.8725C32.4168 62.2575 31.33 60.8795 29.8875 59.9687Z" fill="#161616"/>
<path d="M51.6639 78.3047H39.4404V81.3606H51.6639V78.3047Z" fill="#161616"/>
<path d="M83.7029 26.3416C81.1969 25.9833 79.4559 23.6611 79.8142 21.1551C79.9862 19.9516 80.6293 18.8658 81.602 18.1366L85.182 15.4505L81.5149 10.5611L77.935 13.2457C75.9101 14.7652 73.0368 14.3553 71.5174 12.3306C70.7888 11.3596 70.475 10.139 70.6452 8.93689L71.2777 4.50586L65.2286 3.64258L64.5961 8.0736C64.2376 10.5796 61.9155 12.3207 59.4095 11.9624C58.206 11.7903 57.1202 11.1472 56.391 10.1745L53.7049 6.58845L48.8155 10.2555L51.5001 13.8355C53.0192 15.8606 52.6092 18.7337 50.5841 20.253C49.611 20.983 48.3879 21.2962 47.1837 21.1237L42.7526 20.4912L41.8848 26.5418L46.3158 27.1744C48.8218 27.5329 50.5629 29.855 50.2046 32.361C50.0325 33.5644 49.3894 34.6502 48.4167 35.3794L44.8383 38.0655L48.5053 42.9549L52.0853 40.2703C54.1104 38.7512 56.9835 39.1613 58.5028 41.1863C59.2328 42.1595 59.546 43.3828 59.3736 44.5868L58.741 49.0178L64.8039 49.8857L65.4364 45.4546C65.7949 42.9486 68.117 41.2076 70.623 41.5658C71.8265 41.7379 72.9123 42.381 73.6415 43.3537L76.3276 46.9322L81.217 43.2651L78.5232 39.679C77.0047 37.6536 77.4155 34.7805 79.441 33.2619C80.412 32.5338 81.632 32.2206 82.8335 32.3908L87.2646 33.0233L88.1279 26.9742L83.7029 26.3416ZM65.0117 35.9264C59.9485 35.9264 55.844 31.822 55.844 26.7588C55.844 21.6956 59.9485 17.5911 65.0117 17.5911C70.0749 17.5911 74.1793 21.6956 74.1793 26.7588C74.1734 31.8195 70.0724 35.9205 65.0117 35.9264Z" fill="#161616"/>
<path d="M85.2786 56.9141H74.583V59.9699H85.2786V56.9141Z" fill="#161616"/>
<path d="M74.0332 64.9061L72.0771 67.2539L81.2454 74.8924L83.2015 72.5445L74.0332 64.9061Z" fill="#161616"/>
<path d="M68.4709 69.1367H65.415V79.8323H68.4709V69.1367Z" fill="#161616"/>
<path d="M13.0938 23.345L0.871094 26.4004L1.61177 29.3634L13.8344 26.3081L13.0938 23.345Z" fill="#161616"/>
<path d="M5.18437 8.30764L3.40918 10.793L14.1039 18.4319L15.8791 15.9465L5.18437 8.30764Z" fill="#161616"/>
<path d="M19.4615 -0.00303508L16.501 0.753906L19.626 12.9765L22.5865 12.2195L19.4615 -0.00303508Z" fill="#161616"/>
</g>
<defs>
<clipPath id="clip0_2824_2166">
<rect width="89" height="89" fill="white"/>
</clipPath>
</defs>
</svg>
