<svg xmlns="http://www.w3.org/2000/svg"  viewBox="0 0 50 50" width="50px" height="50px"><path d="M 35 3 C 32.794 3 31 4.794 31 7 L 31 17 L 21 17 C 18.802666 17 17 18.802666 17 21 L 17 31 L 7 31 C 4.8026661 31 3 32.802666 3 35 L 3 43 C 3 45.197334 4.8026661 47 7 47 L 31 47 L 32 47 L 43 47 C 45.206 47 47 45.206 47 43 L 47 7 C 47 4.794 45.206 3 43 3 L 35 3 z M 21 19 L 31 19 L 31 45 L 7 45 C 5.8833339 45 5 44.116666 5 43 L 5 35 C 5 33.883334 5.8833339 33 7 33 L 18 33 A 1.0001 1.0001 0 0 0 19 32 L 19 21 C 19 19.883334 19.883334 19 21 19 z"/></svg>