<svg width="76" height="76" viewBox="0 0 76 76" fill="none" xmlns="http://www.w3.org/2000/svg">
<path fill-rule="evenodd" clip-rule="evenodd" d="M75.4577 17.467C75.4855 17.567 75.4997 17.67 75.5 17.7736V33.8722C75.5 34.0788 75.4439 34.2818 75.3372 34.4606C75.2306 34.6393 75.0773 34.7876 74.8928 34.8904L60.983 42.6697V58.0889C60.983 58.5086 60.7535 58.8959 60.3789 59.1072L31.3434 75.3437C31.277 75.3804 31.2045 75.4038 31.132 75.4288C31.1048 75.4376 31.0791 75.4537 31.0504 75.4611C30.8474 75.513 30.6341 75.513 30.4311 75.4611C30.3979 75.4523 30.3677 75.4346 30.336 75.4229C30.2695 75.3994 30.2 75.3789 30.1366 75.3437L1.1072 59.1072C0.922787 59.0043 0.769556 58.856 0.662954 58.6772C0.556353 58.4984 0.500146 58.2955 0.5 58.0889L0.5 9.7933C0.5 9.68766 0.515105 9.58496 0.542293 9.48518C0.551355 9.45144 0.572502 9.42063 0.584585 9.38688C0.607242 9.32525 0.628388 9.26216 0.661618 9.20494C0.684275 9.16679 0.717505 9.13598 0.744693 9.10077C0.779434 9.05381 0.811153 9.0054 0.851935 8.96431C0.886676 8.93057 0.931989 8.90562 0.971261 8.87628C1.01506 8.84107 1.05434 8.80292 1.10418 8.77504L15.6211 0.656806C15.8049 0.55407 16.0133 0.5 16.2253 0.5C16.4374 0.5 16.6457 0.55407 16.8295 0.656806L31.3449 8.77504H31.348C31.3963 8.80439 31.4371 8.84107 31.4809 8.87481C31.5202 8.90416 31.564 8.93057 31.5987 8.96285C31.641 9.0054 31.6712 9.05381 31.7075 9.10077C31.7331 9.13598 31.7679 9.16679 31.789 9.20494C31.8238 9.26363 31.8434 9.32525 31.8676 9.38688C31.8796 9.42063 31.9008 9.45144 31.9099 9.48665C31.9377 9.58664 31.9519 9.68973 31.9522 9.7933V39.9583L44.0479 33.1928V17.7722C44.0479 17.6694 44.063 17.5653 44.0901 17.467C44.1007 17.4318 44.1204 17.4009 44.1324 17.3672C44.1566 17.3056 44.1777 17.2425 44.211 17.1853C44.2336 17.1471 44.2669 17.1163 44.2925 17.0811C44.3288 17.0341 44.359 16.9857 44.4013 16.9446C44.436 16.9109 44.4798 16.8859 44.5191 16.8566C44.5644 16.8214 44.6037 16.7832 44.652 16.7554L59.1705 8.63712C59.3542 8.53424 59.5626 8.48009 59.7747 8.48009C59.9868 8.48009 60.1951 8.53424 60.3789 8.63712L74.8943 16.7554C74.9457 16.7847 74.9849 16.8214 75.0303 16.8551C75.068 16.8845 75.1118 16.9109 75.1466 16.9432C75.1889 16.9857 75.2191 17.0341 75.2553 17.0811C75.2825 17.1163 75.3157 17.1471 75.3369 17.1853C75.3716 17.2425 75.3913 17.3056 75.4154 17.3672C75.429 17.4009 75.4486 17.4318 75.4577 17.467ZM73.0803 33.1928V19.8057L68.0006 22.6463L60.983 26.5712V39.9583L73.0818 33.1928H73.0803ZM58.5648 57.4096V44.0137L51.662 47.8432L31.9506 58.7712V72.2933L58.5648 57.4096ZM2.91974 11.8254V57.4096L29.5309 72.2918V58.7727L15.6287 51.1298L15.6242 51.1269L15.6181 51.124C15.5713 51.0975 15.532 51.0594 15.4882 51.0271C15.4505 50.9978 15.4067 50.9743 15.3734 50.942L15.3704 50.9376C15.3311 50.9009 15.3039 50.8555 15.2707 50.8144C15.2405 50.7748 15.2043 50.741 15.1801 50.6999L15.1786 50.6955C15.1514 50.6515 15.1348 50.5987 15.1151 50.5488C15.0955 50.5048 15.0698 50.4637 15.0577 50.4168C15.0426 50.361 15.0396 50.3008 15.0336 50.2436C15.0275 50.1996 15.0154 50.1556 15.0154 50.1116V18.5909L7.9994 14.6645L2.91974 11.8254ZM16.2268 3.0308L4.13264 9.7933L16.2238 16.5558L28.3165 9.79184L16.2238 3.0308H16.2268ZM22.5164 45.2345L29.5324 41.3111V11.8254L24.4528 14.666L17.4352 18.5909V48.0765L22.5164 45.2345ZM59.7747 11.0111L47.682 17.7736L59.7747 24.5361L71.8659 17.7722L59.7747 11.0111ZM58.5648 26.5712L51.5473 22.6463L46.4676 19.8057V33.1928L53.4836 37.1162L58.5648 39.9583V26.5712ZM30.7393 56.7391L48.4765 46.9027L57.3429 41.9875L45.2592 35.2294L31.3465 43.0101L18.6662 50.1013L30.7393 56.7391Z" fill="#161616"/>
</svg>
