<svg width="90" height="90" viewBox="0 0 90 90" fill="none" xmlns="http://www.w3.org/2000/svg">
<path d="M45.6212 48.1024L34.9805 79.0233C38.159 79.9551 41.5193 80.4692 45.0013 80.4692C49.1301 80.4692 53.0928 79.7546 56.777 78.4582C56.6824 78.306 56.5961 78.1445 56.5255 77.9691L45.6212 48.1024Z" fill="#161616"/>
<path d="M9.53125 44.9982C9.53125 59.0383 17.6905 71.1704 29.5219 76.9186L12.6039 30.5646C10.6365 34.9755 9.53125 39.8569 9.53125 44.9982Z" fill="#161616"/>
<path d="M68.9403 43.2089C68.9403 38.8259 67.3673 35.7912 66.0179 33.4266C64.2194 30.5052 62.5341 28.032 62.5341 25.1096C62.5341 21.8495 65.0064 18.8148 68.4902 18.8148C68.648 18.8148 68.7965 18.8343 68.9505 18.8417C62.6418 13.0629 54.2357 9.53271 45.0009 9.53271C32.6081 9.53271 21.7065 15.8897 15.3672 25.5198C16.1987 25.5449 16.981 25.5625 17.6492 25.5625C21.3595 25.5625 27.103 25.1124 27.103 25.1124C29.0166 24.9973 29.2393 27.8065 27.3304 28.032C27.3304 28.032 25.4084 28.2575 23.2712 28.3707L36.1847 66.7882L43.9458 43.5087L38.4184 28.3698C36.5086 28.2566 34.6998 28.0311 34.6998 28.0311C32.79 27.9197 33.0127 24.9983 34.9235 25.1115C34.9235 25.1115 40.7821 25.5616 44.265 25.5616C47.9743 25.5616 53.7197 25.1115 53.7197 25.1115C55.6333 24.9983 55.857 27.8056 53.9452 28.0311C53.9452 28.0311 52.0214 28.2566 49.8861 28.3698L62.7049 66.4959L66.2425 54.6747C67.7747 49.7692 68.9403 46.2445 68.9403 43.2089Z" fill="#161616"/>
<path d="M76.1213 27.9828C76.2735 29.1113 76.3607 30.3261 76.3607 31.6299C76.3607 35.2288 75.6897 39.275 73.6648 44.3337L62.8301 75.6555C73.3734 69.5064 80.4681 58.0824 80.4681 45C80.4691 38.8323 78.8924 33.034 76.1213 27.9828Z" fill="#161616"/>
<path d="M44.9991 0C20.1465 0 0 20.1475 0 45C0 69.8525 20.1465 90 44.9991 90C69.8516 90 89.9981 69.8525 89.9981 45C89.9981 20.1475 69.8516 0 44.9991 0ZM45.0009 84.4476C23.248 84.4476 5.55331 66.7529 5.55331 44.9981C5.55331 23.2471 23.2471 5.55238 45.0009 5.55238C66.7511 5.55238 84.4448 23.248 84.4448 44.9981C84.4458 66.7511 66.7502 84.4476 45.0009 84.4476Z" fill="#161616"/>
</svg>
